<svg width="1245" height="328" viewBox="0 0 1245 328" fill="none" xmlns="http://www.w3.org/2000/svg">
<path d="M167.395 121.092V139.594C162.657 134.117 156.882 129.529 150.367 125.828C140.594 120.5 129.341 117.688 116.755 117.688C101.799 117.688 88.3248 121.536 76.1829 129.233C64.041 136.93 54.5644 147.291 47.6051 160.316C40.6457 173.342 37.092 187.995 37.092 204.277C37.092 220.559 40.6457 234.916 47.6051 247.942C54.5644 260.967 64.1891 271.18 76.1829 278.877C88.3248 286.426 101.799 290.274 116.755 290.274C129.341 290.274 140.742 287.61 150.515 282.133C157.03 278.581 162.657 273.992 167.395 268.664V286.87H205.301V121.092H167.395ZM156.882 239.949C148.294 249.422 136.892 254.158 122.974 254.158C113.793 254.158 105.649 252.086 98.6898 247.794C91.7305 243.501 86.1037 237.581 82.1058 230.032C78.1079 222.483 76.0348 213.75 76.0348 203.833C76.0348 193.916 78.1079 185.183 82.1058 177.634C86.1037 170.085 91.5824 164.165 98.6898 159.872C105.649 155.58 113.793 153.507 122.974 153.507C132.154 153.507 140.594 155.58 147.702 159.872C154.661 164.165 160.14 170.085 164.138 177.634C167.987 185.183 170.06 193.916 170.06 203.833C169.764 218.486 165.47 230.624 156.882 239.949Z" fill="black"/>
<path d="M315.763 289.978C299.475 289.978 284.668 286.13 271.49 278.581C258.311 271.032 247.798 260.671 240.246 247.498C232.695 234.324 228.845 219.819 228.845 203.685C228.845 187.551 232.695 172.75 240.246 159.724C247.798 146.847 258.163 136.634 271.49 128.937C284.668 121.388 299.475 117.54 315.763 117.54C328.645 117.54 340.639 120.056 351.744 124.94C362.85 129.825 372.326 136.93 380.174 146.107L355.298 171.269C350.412 165.497 344.637 161.204 337.826 158.392C331.014 155.58 323.611 154.1 315.615 154.1C306.138 154.1 297.846 156.172 290.591 160.464C283.335 164.757 277.709 170.529 273.711 177.93C269.713 185.331 267.64 193.916 267.64 203.833C267.64 213.75 269.713 222.039 273.711 229.588C277.709 236.989 283.335 242.909 290.591 247.202C297.846 251.494 306.138 253.566 315.615 253.566C323.611 253.566 331.014 252.086 337.826 249.274C344.637 246.462 350.412 242.021 355.298 236.396L380.174 261.559C372.326 270.736 362.85 277.841 351.744 282.725C340.639 287.61 328.645 289.978 315.763 289.978Z" fill="black"/>
<path d="M474.644 289.978C458.356 289.978 443.549 286.13 430.371 278.581C417.192 271.032 406.679 260.671 399.127 247.498C391.576 234.324 387.726 219.819 387.726 203.685C387.726 187.551 391.576 172.75 399.127 159.724C406.679 146.699 417.192 136.486 430.371 128.789C443.549 121.24 458.356 117.392 474.644 117.392C487.526 117.392 499.52 119.908 510.625 124.792C521.731 129.677 531.207 136.782 539.055 145.959L514.179 171.121C509.293 165.349 503.518 161.056 496.707 158.244C489.895 155.432 482.492 153.952 474.496 153.952C465.019 153.952 456.727 156.024 449.472 160.316C442.216 164.609 436.59 170.381 432.592 177.782C428.594 185.183 426.521 193.768 426.521 203.685C426.521 213.602 428.594 221.891 432.592 229.44C436.59 236.841 442.216 242.761 449.472 247.054C456.727 251.346 465.019 253.418 474.496 253.418C482.492 253.418 489.895 251.938 496.707 249.126C503.518 246.314 509.293 241.873 514.179 236.249L539.055 261.411C531.207 270.588 521.731 277.693 510.625 282.578C499.668 287.61 487.526 289.978 474.644 289.978Z" fill="black"/>
<path d="M700.898 157.652C694.086 145.218 684.758 135.449 672.912 128.345C661.066 121.24 647.444 117.688 632.044 117.688C616.645 117.688 601.69 121.536 588.807 129.085C575.777 136.634 565.56 146.995 557.86 160.02C550.309 173.046 546.459 187.699 546.459 203.981C546.459 220.263 550.309 235.064 558.008 248.09C565.708 261.263 576.221 271.476 589.4 279.025C602.578 286.426 617.533 290.274 634.117 290.274C647 290.274 659.141 287.906 670.691 283.021C682.241 278.137 692.013 271.032 700.009 261.707L675.874 237.284C670.839 243.057 664.62 247.35 657.365 250.458C650.109 253.418 642.261 254.898 633.673 254.898C623.752 254.898 615.016 252.826 607.464 248.534C599.913 244.241 593.99 238.321 589.844 230.476C587.919 226.775 586.438 222.779 585.402 218.338H708.894C709.634 214.934 710.078 211.678 710.374 208.865C710.67 206.053 710.818 203.241 710.818 200.428C710.967 184.147 707.561 170.085 700.898 157.652ZM589.548 176.006C593.398 168.605 599.024 162.684 606.132 158.54C613.239 154.395 621.679 152.323 631.304 152.323C640.929 152.323 648.332 154.099 654.551 157.8C660.918 161.5 665.805 166.829 669.21 173.638C671.135 177.486 672.616 181.926 673.504 186.811H585.402C586.438 182.963 587.771 179.41 589.548 176.006Z" fill="black"/>
<path d="M853.175 37.0187V139.446C848.436 133.969 842.662 129.381 836.146 125.68C826.374 120.352 815.12 117.539 802.534 117.539C787.579 117.539 774.104 121.388 761.962 129.085C749.821 136.781 740.344 147.143 733.385 160.168C726.425 173.193 722.872 187.847 722.872 204.129C722.872 220.411 726.425 234.768 733.385 247.794C740.344 260.819 749.969 271.032 761.962 278.729C774.104 286.278 787.579 290.126 802.534 290.126C815.12 290.126 826.522 287.462 836.294 281.985C842.81 278.433 848.436 273.844 853.175 268.516V286.722H891.081V37.0187H853.175ZM833.333 247.794C826.374 252.086 818.082 254.158 808.605 254.158C799.129 254.158 791.281 252.086 784.321 247.794C777.362 243.501 771.735 237.58 767.737 230.032C763.739 222.483 761.666 213.75 761.666 203.833C761.666 193.916 763.739 185.183 767.737 177.634C771.735 170.085 777.214 164.164 784.321 159.872C791.281 155.58 799.573 153.507 809.049 153.507C818.526 153.507 826.374 155.58 833.333 159.872C840.292 164.164 845.771 170.085 849.769 177.634C853.619 185.183 855.692 193.916 855.692 203.833C855.692 213.75 853.767 222.483 849.769 230.032C845.771 237.58 840.292 243.501 833.333 247.794Z" fill="black"/>
<path d="M1001.39 289.09C985.255 289.09 970.744 285.242 957.565 277.545C944.387 269.848 934.022 259.487 926.322 246.313C918.622 233.14 914.772 218.634 914.772 202.501C914.772 186.367 918.622 171.861 926.322 158.984C934.022 146.107 944.387 135.894 957.565 128.049C970.744 120.352 985.255 116.503 1001.39 116.503C1017.53 116.503 1032.49 120.352 1045.52 127.901C1058.7 135.449 1069.06 145.811 1076.76 158.836C1084.46 171.861 1088.31 186.367 1088.31 202.501C1088.31 218.634 1084.46 233.14 1076.76 246.313C1069.06 259.487 1058.7 269.848 1045.52 277.545C1032.49 285.242 1017.83 289.09 1001.39 289.09ZM1001.39 252.53C1010.87 252.53 1019.16 250.458 1026.42 246.165C1033.67 241.873 1039.3 235.952 1043.3 228.404C1047.3 220.855 1049.37 212.27 1049.37 202.501C1049.37 192.732 1047.3 184.295 1043.15 177.042C1039 169.641 1033.38 163.869 1026.27 159.576C1019.16 155.284 1010.87 153.211 1001.39 153.211C991.918 153.211 983.922 155.284 976.667 159.576C969.411 163.869 963.784 169.641 959.786 177.042C955.788 184.443 953.715 192.88 953.715 202.501C953.715 212.122 955.788 220.707 959.786 228.404C963.784 235.952 969.411 241.873 976.667 246.165C984.07 250.458 992.214 252.53 1001.39 252.53Z" fill="black"/>
<path d="M1169.74 197.957C1191 197.957 1208.24 180.727 1208.24 159.473C1208.24 138.218 1191 120.988 1169.74 120.988C1148.48 120.988 1131.24 138.218 1131.24 159.473C1131.24 180.727 1148.48 197.957 1169.74 197.957Z" fill="url(#paint0_linear_1_219)"/>
<path d="M1169.74 287.166C1191 287.166 1208.24 269.936 1208.24 248.682C1208.24 227.428 1191 210.198 1169.74 210.198C1148.48 210.198 1131.24 227.428 1131.24 248.682C1131.24 269.936 1148.48 287.166 1169.74 287.166Z" fill="#0064FF"/>
<defs>
<linearGradient id="paint0_linear_1_219" x1="1188.66" y1="120.891" x2="1157.35" y2="192.561" gradientUnits="userSpaceOnUse">
<stop stop-color="#FF2B62"/>
<stop offset="0.979167" stop-color="#FFB71E"/>
</linearGradient>
</defs>
</svg>
